# xmcd CD database file
#
# Track frame offsets:
#	150
#	11858
#	25508
#	36925
#	51565
#	69682
#	83955
#	96108
#	114400
#	128873
#	142310
#	156668
#	171008
#	187670
#	203143
#	218230
#	229415
#	245100
#	261843
#	274440
#	289160
#	301715
#	315095
#
# Disc length: 4374 seconds
#
# Revision: 0
# Processed by: cddbd v1.5.2PL0 Copyright (c) Steve Scherf et al.
# Submitted via: CDex 1.70beta2
#
DISCID=5a111417
DTITLE=ChartBreakers - ChartBreakers CGC-517
DYEAR=1900
DGENRE=Country
TTITLE0=Garth Brooks - Two Of A Kind, Workin' On A Full House
TTITLE1=Alan Jackson - Wanted
TTITLE2=Ricky Van Shelton - I've Cried My Last Tear For You
TTITLE3=Shenandoah - Moon Over Georgia
TTITLE4=Doug Stone - Too Busy Being In Love
TTITLE5=George Strait - Love Without End, Amen
TTITLE6=Marty Stuart - Hillbilly Rock
TTITLE7=Randy Travis - Hard Rock Bottom Of Your Heart
TTITLE8=Travis Tritt - Coutry Club
TTITLE9=Tanya Tucker - It Won't Be Me
TTITLE10=Alabama - Old Flame
TTITLE11=Mark Chesnutt - Bubba Shot The Jukebox
TTITLE12=Mark Collie - Even The Man In The Moon Is Cryin'
TTITLE13=Confederate Railroad - Jesus And Mama
TTITLE14=Earl Thomas Conley and Keith Whitley - Brotherly Love
TTITLE15=Rooney Crowell - Above And Beyond
TTITLE16=Billy Ray Cyrus - Achy Breaky Heart
TTITLE17=Diamond Rio - Nowhere Bound
TTITLE18=Holly Dunn - There Goes My Heart Again
TTITLE19=Lee Greenwood - God Bless The USA
TTITLE20=Ricky Lynn Gregg - Can You Feel It
TTITLE21=Judds - Girls Night Out
TTITLE22=Chris LeDoux - Cadillac Ranch
EXTD=YEAR: 1900
EXTT0=
EXTT1=
EXTT2=
EXTT3=
EXTT4=
EXTT5=
EXTT6=
EXTT7=
EXTT8=
EXTT9=
EXTT10=
EXTT11=
EXTT12=
EXTT13=
EXTT14=
EXTT15=
EXTT16=
EXTT17=
EXTT18=
EXTT19=
EXTT20=
EXTT21=
EXTT22=
PLAYORDER=
